# xmcd CD database file
#
# Track frame offsets:
#	150
#	26212
#	47186
#
# Disc length: 922 seconds
#
# Revision: 1
# Processed by: cddbd v1.5.2PL0 Copyright (c) Steve Scherf et al.
# Submitted via: CDex 1.70beta2
#
DISCID=23039803
DTITLE=access - SHARE THE LOVE
DYEAR=2011
DGENRE=Rock
TTITLE0=Share The Love
TTITLE1=Keep It
TTITLE2=Ride Up For The Shiny Way
EXTD=YEAR: 2011
EXTT0=
EXTT1=
EXTT2=
PLAYORDER=
